<?xml version="1.0" standalone="no"?>
<!DOCTYPE svg PUBLIC "-//W3C//DTD SVG 20010904//EN"
 "http://www.w3.org/TR/2001/REC-SVG-20010904/DTD/svg10.dtd">
<svg version="1.0" xmlns="http://www.w3.org/2000/svg"
 width="403.000000pt" height="116.000000pt" viewBox="0 0 403.000000 116.000000"
 preserveAspectRatio="xMidYMid meet">

<g transform="translate(0.000000,116.000000) scale(0.100000,-0.100000)"
fill="#fff" stroke="none">
<path d="M271 996 c-30 -47 -28 -93 4 -108 39 -18 75 3 75 44 0 29 -36 98 -52
98 -3 0 -16 -15 -27 -34z"/>
<path d="M462 991 c-27 -47 -28 -73 -4 -94 27 -25 59 -21 79 9 16 25 16 28 -8
72 -13 25 -29 47 -35 49 -5 2 -20 -14 -32 -36z"/>
<path d="M662 1003 c-32 -45 -38 -80 -17 -103 38 -42 103 -8 91 47 -4 16 -17
41 -30 57 l-23 29 -21 -30z"/>
<path d="M260 787 c-19 -10 -34 -38 -67 -127 l-42 -115 0 -171 c-1 -181 2
-194 47 -194 40 0 62 18 62 50 l0 30 235 0 235 0 0 -28 c0 -35 16 -52 51 -52
54 0 59 17 59 185 l0 154 -44 127 c-25 69 -50 132 -56 138 -17 17 -447 20
-480 3z m474 -125 c14 -42 26 -80 26 -85 0 -4 -121 -7 -269 -7 l-270 0 25 73
c13 39 26 78 29 85 3 9 56 12 219 12 l214 0 26 -78z m-412 -189 c10 -9 18 -27
18 -40 0 -28 -33 -63 -60 -63 -11 0 -29 9 -40 20 -55 55 24 135 82 83z m422 1
c52 -51 -22 -136 -76 -87 -38 34 -13 103 37 103 13 0 31 -7 39 -16z"/>
<path d="M1020 509 l0 -212 109 5 c94 4 114 8 154 31 74 44 108 139 87 241
-14 68 -56 116 -117 134 -22 7 -84 12 -137 12 l-96 0 0 -211z m210 101 c26
-26 34 -60 28 -121 -6 -62 -30 -89 -87 -96 l-41 -6 0 122 0 121 40 0 c26 0 47
-7 60 -20z"/>
<path d="M2740 500 l0 -220 -25 -16 c-14 -9 -34 -14 -46 -11 -18 5 -20 1 -17
-36 3 -41 4 -42 43 -45 48 -3 100 22 129 61 20 26 21 44 24 258 l3 229 -55 0
-56 0 0 -220z"/>
<path d="M1857 655 c-9 -18 -28 -42 -42 -51 -30 -20 -33 -54 -5 -61 17 -5 20
-14 20 -67 1 -136 27 -176 115 -176 76 0 85 5 85 51 0 38 -1 38 -32 32 -43 -9
-58 15 -58 94 l0 63 40 0 40 0 0 45 0 45 -40 0 c-38 0 -40 2 -40 30 0 27 -3
30 -33 30 -28 0 -36 -5 -50 -35z"/>
<path d="M2130 656 c-6 -19 -22 -42 -36 -50 -31 -21 -34 -66 -4 -66 19 0 20
-7 20 -95 0 -88 2 -98 25 -120 20 -21 34 -25 79 -25 77 0 86 5 86 50 0 37 -1
37 -37 36 l-38 -1 -3 77 -3 77 38 3 c37 3 38 4 38 43 0 39 -1 40 -37 43 -35 3
-38 6 -38 33 0 27 -2 29 -39 29 -36 0 -40 -3 -51 -34z"/>
<path d="M3350 656 c-6 -19 -22 -42 -36 -50 -29 -20 -32 -52 -4 -59 18 -5 20
-14 20 -102 0 -89 2 -98 25 -120 19 -20 34 -25 72 -25 81 0 93 7 93 51 0 37 0
38 -33 32 -48 -7 -59 11 -55 94 l3 68 38 3 c35 3 37 5 37 37 0 32 -2 34 -37
37 -35 3 -38 6 -41 36 -3 29 -6 32 -37 32 -29 0 -35 -4 -45 -34z"/>
<path d="M1508 618 c-42 -11 -44 -16 -23 -59 13 -25 19 -28 35 -19 30 16 90
15 101 -1 15 -24 11 -28 -38 -34 -87 -11 -100 -16 -124 -41 -35 -37 -32 -109
5 -141 37 -31 112 -32 151 -2 22 18 29 20 36 8 5 -8 9 -17 9 -21 0 -5 18 -8
40 -8 l40 0 0 120 c0 135 -10 169 -60 195 -32 17 -115 18 -172 3z m122 -190
c0 -48 -59 -77 -80 -38 -8 15 -6 24 10 40 28 28 70 27 70 -2z"/>
<path d="M2420 617 c-19 -6 -34 -16 -33 -22 2 -5 7 -22 12 -37 9 -25 12 -27
40 -17 42 15 95 8 99 -13 3 -13 -7 -18 -45 -23 -80 -10 -94 -15 -119 -40 -34
-34 -34 -106 1 -140 33 -34 110 -35 150 -4 22 18 29 20 36 8 5 -8 9 -17 9 -21
0 -5 18 -8 40 -8 l40 0 0 130 c0 129 0 130 -29 162 -26 30 -34 32 -97 35 -38
2 -85 -3 -104 -10z m120 -197 c0 -33 -29 -55 -60 -45 -28 9 -27 53 3 65 43 17
57 12 57 -20z"/>
<path d="M3014 621 c-49 -12 -54 -17 -41 -51 13 -33 16 -34 69 -20 44 13 78 0
78 -29 0 -16 -10 -19 -65 -23 -91 -6 -119 -28 -123 -96 -3 -44 1 -56 22 -77
32 -32 96 -34 145 -4 27 16 36 18 42 7 5 -7 9 -16 9 -20 0 -5 18 -8 40 -8 l40
0 0 115 c0 139 -13 179 -64 200 -37 16 -100 18 -152 6z m106 -195 c0 -51 -59
-74 -84 -33 -9 15 -7 22 13 38 13 10 34 19 47 19 19 0 24 -5 24 -24z"/>
<path d="M3666 620 c-61 -19 -96 -76 -96 -157 0 -98 62 -163 154 -163 105 0
161 58 161 167 0 66 -16 98 -67 136 -30 22 -108 31 -152 17z m98 -92 c29 -41
16 -138 -20 -152 -9 -3 -27 1 -40 9 -21 13 -24 24 -24 71 0 30 5 64 10 75 14
26 55 24 74 -3z"/>
</g>
</svg>
